<?xml version="1.0" encoding="utf-8"?><svg viewBox="0 0 131 42" xmlns="http://www.w3.org/2000/svg" xmlns:xlink="http://www.w3.org/1999/xlink"><style>:root>svg{display:none}:root>svg:target{display:block}</style><svg viewBox="0 0 22 42" id="icon-arrow" xmlns="http://www.w3.org/2000/svg"><path d="M1 41l20-20L1 1"/></svg><svg viewBox="0 0 24 24" id="icon-close" xmlns="http://www.w3.org/2000/svg"><path d="M18 6L6 18M6 6l12 12"/></svg><svg viewBox="0 0 22 22" id="icon-heart" xmlns="http://www.w3.org/2000/svg"><path d="M11 19a1.06 1.06 0 01-.695-.261c-.725-.634-1.428-1.232-2.047-1.759a38.052 38.052 0 01-4.472-4.194A6.69 6.69 0 012 8.407a5.615 5.615 0 011.427-3.84A4.84 4.84 0 017.03 3a4.53 4.53 0 012.83.975 5.8 5.8 0 011.142 1.194c.322-.45.707-.852 1.144-1.193A4.53 4.53 0 0114.97 3a4.844 4.844 0 013.6 1.566A5.615 5.615 0 0120 8.406a6.689 6.689 0 01-1.782 4.38 38.045 38.045 0 01-4.469 4.191c-.62.528-1.321 1.126-2.05 1.763-.194.168-.441.26-.697.26z"/></svg><svg viewBox="0 0 131 26" id="icon-logo" xmlns="http://www.w3.org/2000/svg"><path d="M17.55 16.8c-.72 2.25-2.7 4.5-6.15 4.5-3.93 0-6.9-3-6.9-7.8s2.97-7.8 6.9-7.8c2.67 0 5.1 1.5 6.15 4.35h3.3c-.87-3.75-4.2-7.35-9.45-7.35-5.52 0-10.05 4.35-10.05 10.8 0 6.45 4.53 10.8 10.05 10.8 5.67 0 8.73-4.2 9.45-7.5h-3.3zm15.764 7.5c5.52 0 10.05-4.35 10.05-10.8 0-6.45-4.53-10.8-10.05-10.8-5.52 0-10.05 4.35-10.05 10.8 0 6.45 4.53 10.8 10.05 10.8zm0-18.6c3.93 0 6.9 3 6.9 7.8s-2.97 7.8-6.9 7.8-6.9-3-6.9-7.8 2.97-7.8 6.9-7.8zM46.957 24h13.35v-3h-10.2V3h-3.15v21zm24.15.3c5.52 0 10.05-4.35 10.05-10.8 0-6.45-4.53-10.8-10.05-10.8-5.52 0-10.05 4.35-10.05 10.8 0 6.45 4.53 10.8 10.05 10.8zm0-18.6c3.93 0 6.9 3 6.9 7.8s-2.97 7.8-6.9 7.8-6.9-3-6.9-7.8 2.97-7.8 6.9-7.8zM84.75 24h3.15v-7.5h1.5l7.5 7.5h4.05l-7.5-7.5h.75c3.45 0 6.15-2.67 6.15-6.75S97.65 3 94.2 3h-9.45v21zm3.15-10.5V6h6.15c1.68 0 3.15 1.5 3.15 3.75s-1.47 3.75-3.15 3.75H87.9zm15.312 4.05c0 3.75 3 6.75 8.25 6.75s7.95-2.7 7.95-6.15c0-3.33-1.92-5.1-6.15-5.85l-3.3-.6c-2.28-.45-3.15-1.5-3.15-2.85 0-1.68 1.5-3.15 4.35-3.15 3 0 4.8 1.8 4.8 3.75h3.15c0-3.75-2.7-6.75-7.95-6.75-4.65 0-7.5 2.7-7.5 6.15 0 2.88 1.62 4.95 4.95 5.55l4.05.75c2.4.45 3.6 1.47 3.6 3 0 1.8-1.35 3.15-4.8 3.15-3.12 0-5.1-1.8-5.1-3.75h-3.15z"/><circle cx="127" cy="6" r="4"/></svg><svg viewBox="0 0 16 16" id="icon-minus" xmlns="http://www.w3.org/2000/svg"><path d="M3.333 8h9.334"/></svg><svg viewBox="0 0 16 16" id="icon-plus" xmlns="http://www.w3.org/2000/svg"><path d="M8 3.333v9.334M3.333 8h9.334"/></svg><svg viewBox="0 0 24 24" id="icon-refresh" xmlns="http://www.w3.org/2000/svg"><path d="M17 1l4 4-4 4"/><path d="M3 11V9a4 4 0 014-4h14M7 23l-4-4 4-4"/><path d="M21 13v2a4 4 0 01-4 4H3"/></svg><svg viewBox="0 0 20 20" id="icon-search" xmlns="http://www.w3.org/2000/svg"><path d="M9.167 15.833a6.667 6.667 0 100-13.333 6.667 6.667 0 000 13.333zM17.5 17.5l-3.625-3.625"/></svg><svg viewBox="0 0 8 5" id="icon-select-arrow" xmlns="http://www.w3.org/2000/svg"><path d="M4 4.5L7.464 0H.536L4 4.5z"/></svg><svg viewBox="0 0 22 22" id="icon-user" xmlns="http://www.w3.org/2000/svg"><g clip-path="url(#ja)" stroke-width="1.2"><circle cx="11" cy="23" r="8.4"/><circle cx="11" cy="7" r="3.4"/></g><defs><clipPath id="ja"><path d="M0 0h22v22H0z"/></clipPath></defs></svg></svg>